<svg id="svg" version="1.1" xmlns="http://www.w3.org/2000/svg" xmlns:xlink="http://www.w3.org/1999/xlink" width="400" height="225" viewBox="0, 0, 400,225"><g id="svgg"><path id="path0" d="M321.771 91.991 L 301.354 102.488 265.313 102.491 L 229.271 102.494 228.484 100.561 C 218.566 76.198,183.594 75.287,172.167 99.094 L 171.231 101.045 132.035 101.040 L 92.840 101.035 70.222 112.620 C 57.782 118.991,47.535 124.270,47.451 124.349 C 47.304 124.488,48.536 127.079,48.750 127.081 C 48.807 127.081,59.007 121.879,71.417 115.520 L 93.979 103.958 132.118 103.958 L 170.257 103.958 170.128 104.427 C 170.058 104.685,169.941 105.248,169.869 105.679 L 169.738 106.462 131.131 106.457 L 92.524 106.452 70.813 117.599 C 58.871 123.730,49.066 128.782,49.022 128.825 C 48.953 128.894,54.872 140.567,55.083 140.777 C 55.126 140.821,64.486 136.070,75.882 130.219 L 96.601 119.582 133.225 119.635 L 169.850 119.688 170.130 120.625 C 170.284 121.141,170.412 121.586,170.414 121.615 C 170.415 121.643,153.975 121.667,133.881 121.667 L 97.344 121.667 76.905 132.135 C 61.413 140.070,56.465 142.694,56.462 142.976 C 56.457 143.446,57.446 145.417,57.687 145.417 C 57.786 145.417,67.101 140.682,78.387 134.896 L 98.907 124.375 135.131 124.377 L 171.354 124.379 172.221 126.211 C 182.784 148.527,215.167 149.392,227.019 127.676 L 228.021 125.841 267.695 125.840 L 307.369 125.840 329.987 114.255 C 342.426 107.884,352.673 102.605,352.757 102.526 C 352.904 102.387,351.672 99.796,351.458 99.794 C 351.401 99.794,341.201 104.996,328.792 111.355 L 306.229 122.917 267.719 122.917 L 229.209 122.917 229.565 121.719 L 229.921 120.521 268.804 120.471 L 307.687 120.422 329.397 109.276 C 341.337 103.145,351.143 98.093,351.186 98.050 C 351.255 97.981,345.336 86.308,345.126 86.098 C 345.082 86.054,335.723 90.805,324.328 96.655 L 303.610 107.292 267.041 107.292 L 230.472 107.292 230.266 106.250 L 230.060 105.208 266.462 105.208 L 302.864 105.208 323.303 94.740 C 338.795 86.805,343.743 84.181,343.746 83.899 C 343.752 83.342,342.739 81.456,342.444 81.476 C 342.303 81.485,333.000 86.217,321.771 91.991 M206.250 87.777 C 225.361 92.697,231.944 116.681,218.030 130.690 C 202.061 146.768,174.572 135.327,174.572 112.604 C 174.572 95.926,190.231 83.654,206.250 87.777 " stroke="none" fill="#fcfcfc" fill-rule="evenodd"></path><path id="path1" d="M196.146 93.631 C 183.826 96.473,177.347 109.490,182.624 120.799 C 187.138 130.470,198.596 134.612,208.306 130.081 C 222.966 123.239,223.100 102.204,208.528 95.217 C 204.940 93.497,199.660 92.820,196.146 93.631 " stroke="none" fill="#fc3c3c" fill-rule="evenodd"></path><path id="path2" d="" stroke="none" fill="#fccc100" fill-rule="evenodd"></path><path id="path3" d="" stroke="none" fill="#fccc100" fill-rule="evenodd"></path><path id="path4" d="" stroke="none" fill="#fccc100" fill-rule="evenodd"></path></g></svg>