<svg id="svg" version="1.1" xmlns="http://www.w3.org/2000/svg" xmlns:xlink="http://www.w3.org/1999/xlink" width="400" height="225" viewBox="0, 0, 400,225"><g id="svgg"><path id="path0" d="M322.708 91.781 L 302.396 102.282 265.705 102.287 L 229.015 102.292 228.643 101.302 C 225.594 93.182,217.983 85.994,209.529 83.249 C 194.947 78.515,178.907 85.392,172.280 99.219 L 171.406 101.042 131.995 101.042 C 108.512 101.042,92.503 101.119,92.385 101.232 C 92.277 101.336,82.063 106.647,69.688 113.033 C 57.313 119.419,47.146 124.679,47.095 124.723 C 47.044 124.767,47.257 125.322,47.568 125.956 L 48.133 127.110 51.098 125.558 C 52.728 124.705,62.891 119.449,73.681 113.879 L 93.300 103.750 131.858 103.750 C 153.065 103.750,170.413 103.820,170.408 103.906 C 170.403 103.992,170.279 104.578,170.132 105.208 L 169.864 106.354 131.026 106.458 L 92.188 106.563 90.833 107.268 C 89.181 108.129,85.158 110.212,80.833 112.445 C 77.866 113.978,76.021 114.926,65.729 120.208 C 63.781 121.208,60.406 122.946,58.229 124.069 C 56.052 125.193,53.521 126.486,52.604 126.944 C 51.688 127.401,50.443 128.050,49.839 128.385 L 48.740 128.995 51.583 134.549 C 53.147 137.605,54.512 140.212,54.617 140.344 C 54.813 140.590,55.042 140.481,63.438 136.149 C 65.385 135.144,68.760 133.408,70.938 132.291 C 73.115 131.174,76.583 129.392,78.646 128.330 C 80.708 127.269,84.083 125.535,86.146 124.479 C 88.208 123.422,91.282 121.842,92.976 120.966 L 96.055 119.375 133.003 119.375 L 169.951 119.375 170.180 120.286 C 170.306 120.787,170.468 121.349,170.539 121.536 C 170.659 121.848,167.779 121.875,133.755 121.875 L 96.841 121.875 76.389 132.428 C 65.141 138.233,55.908 143.005,55.872 143.032 C 55.835 143.060,56.070 143.601,56.392 144.235 L 56.979 145.386 77.292 134.885 L 97.604 124.385 134.583 124.387 L 171.563 124.389 172.292 125.990 C 182.627 148.675,216.488 149.091,227.395 126.667 L 227.952 125.521 267.651 125.574 C 291.133 125.605,307.445 125.550,307.582 125.439 C 307.709 125.335,317.938 120.024,330.313 113.637 C 342.688 107.249,352.854 101.987,352.905 101.943 C 352.956 101.899,352.743 101.344,352.432 100.710 L 351.867 99.557 348.902 101.108 C 347.272 101.961,337.109 107.217,326.319 112.788 L 306.700 122.917 267.834 122.917 L 228.969 122.917 229.191 122.344 C 229.313 122.029,229.586 121.115,229.799 120.313 C 230.133 119.051,230.187 118.960,230.197 119.635 L 230.208 120.417 269.125 120.417 C 290.965 120.417,308.129 120.337,308.240 120.235 C 308.348 120.135,310.266 119.116,312.500 117.969 C 314.734 116.823,317.922 115.183,319.583 114.324 C 322.360 112.889,324.202 111.942,334.479 106.667 C 336.427 105.667,339.802 103.929,341.979 102.806 C 344.156 101.682,346.688 100.389,347.604 99.931 C 348.521 99.474,349.765 98.825,350.370 98.490 L 351.468 97.880 348.625 92.326 C 347.062 89.270,345.696 86.663,345.591 86.531 C 345.395 86.285,345.166 86.394,336.771 90.726 C 334.823 91.731,331.448 93.467,329.271 94.584 C 327.094 95.701,323.625 97.483,321.563 98.545 C 319.500 99.606,316.125 101.340,314.063 102.396 C 312.000 103.453,308.926 105.034,307.232 105.909 L 304.151 107.501 267.241 107.448 L 230.331 107.396 230.166 106.563 C 230.076 106.104,229.953 105.518,229.893 105.260 L 229.784 104.792 266.471 104.792 L 303.159 104.792 323.611 94.238 C 334.859 88.434,344.092 83.662,344.128 83.634 C 344.165 83.606,343.930 83.065,343.608 82.432 L 343.021 81.281 322.708 91.781 M204.227 87.186 C 224.832 90.779,232.866 116.231,218.032 130.919 C 201.870 146.922,174.377 135.388,174.377 112.604 C 174.377 96.717,188.741 84.485,204.227 87.186 " stroke="none" fill="#242424" fill-rule="evenodd"></path><path id="path1" d="M0.000 112.396 L 0.000 224.375 200.000 224.375 L 400.000 224.375 400.000 112.396 L 400.000 0.417 200.000 0.417 L 0.000 0.417 0.000 112.396 M343.727 82.454 L 344.334 83.657 323.873 94.224 L 303.413 104.792 266.706 104.792 C 246.518 104.792,230.000 104.870,230.000 104.965 C 230.000 105.061,230.107 105.670,230.237 106.319 L 230.474 107.500 267.123 107.500 L 303.773 107.500 306.938 105.914 C 308.680 105.042,310.479 104.115,310.938 103.855 C 311.396 103.595,313.974 102.259,316.667 100.887 C 319.359 99.514,323.250 97.522,325.313 96.461 C 327.375 95.400,330.563 93.760,332.396 92.817 C 343.502 87.102,345.265 86.227,345.497 86.316 C 345.639 86.371,346.230 87.339,346.810 88.468 C 347.390 89.597,348.718 92.178,349.759 94.203 L 351.653 97.885 350.775 98.396 C 350.291 98.678,348.021 99.869,345.729 101.043 C 343.438 102.218,340.156 103.905,338.438 104.792 C 336.719 105.679,333.438 107.367,331.146 108.543 C 328.854 109.719,325.526 111.430,323.750 112.346 C 314.425 117.152,311.802 118.497,309.970 119.413 L 307.961 120.417 269.084 120.417 L 230.208 120.417 230.197 119.948 C 230.189 119.617,229.273 122.230,229.175 122.865 C 229.170 122.893,246.552 122.917,267.801 122.917 L 306.435 122.917 328.869 111.328 C 341.207 104.954,351.455 99.699,351.642 99.650 C 351.973 99.564,353.359 101.716,353.120 101.945 C 353.066 101.997,342.746 107.347,330.187 113.833 L 307.353 125.625 267.678 125.625 L 228.003 125.625 227.420 126.823 C 220.225 141.583,201.182 147.812,186.223 140.299 C 180.157 137.252,175.301 132.347,172.265 126.198 L 171.365 124.375 134.633 124.375 L 97.900 124.375 77.752 134.780 C 66.671 140.504,57.445 145.246,57.252 145.319 C 56.978 145.422,56.761 145.179,56.282 144.231 L 55.666 143.009 76.127 132.442 L 96.587 121.875 133.502 121.875 C 153.805 121.875,170.415 121.805,170.413 121.719 C 170.410 121.633,170.287 121.094,170.139 120.521 L 169.869 119.479 133.153 119.427 L 96.438 119.374 93.271 120.960 C 91.529 121.833,89.729 122.760,89.271 123.020 C 88.813 123.280,86.234 124.616,83.542 125.988 C 80.849 127.361,76.958 129.353,74.896 130.414 C 72.833 131.475,69.646 133.115,67.813 134.058 C 56.706 139.773,54.943 140.648,54.711 140.559 C 54.569 140.504,53.979 139.536,53.398 138.407 C 52.818 137.278,51.491 134.697,50.449 132.672 L 48.555 128.990 49.434 128.479 C 49.917 128.197,52.188 127.006,54.479 125.832 C 56.771 124.657,60.052 122.970,61.771 122.083 C 63.490 121.196,66.771 119.508,69.063 118.332 C 71.354 117.156,74.682 115.445,76.458 114.529 C 85.783 109.723,88.406 108.378,90.238 107.462 L 92.248 106.458 130.980 106.458 L 169.712 106.458 170.036 105.104 L 170.360 103.750 131.962 103.750 L 93.565 103.750 71.131 115.339 C 58.793 121.713,48.545 126.968,48.358 127.017 C 48.027 127.103,46.641 124.950,46.880 124.722 C 46.934 124.669,57.254 119.320,69.813 112.834 L 92.647 101.042 132.001 101.033 L 171.354 101.025 172.188 99.222 C 179.962 82.402,201.768 76.420,217.184 86.878 C 222.324 90.365,227.093 96.357,228.911 101.615 L 229.145 102.292 265.622 102.292 L 302.099 102.292 322.456 91.773 C 333.652 85.988,342.881 81.254,342.966 81.253 C 343.050 81.251,343.392 81.792,343.727 82.454 M198.021 86.996 C 195.104 87.400,194.012 87.624,192.292 88.171 C 172.305 94.530,168.094 121.492,185.208 133.523 C 208.393 149.823,236.755 121.841,221.080 98.132 C 216.286 90.882,205.963 85.896,198.021 86.996 M203.125 93.556 C 218.579 96.060,224.780 115.158,213.722 126.195 C 201.629 138.267,180.836 129.674,180.836 112.604 C 180.836 100.856,191.569 91.684,203.125 93.556 " stroke="none" fill="#fbfbfb" fill-rule="evenodd"></path><path id="path2" d="M196.821 93.649 C 178.439 97.135,175.010 121.754,191.771 129.908 C 204.489 136.095,219.251 126.800,219.251 112.604 C 219.251 100.665,208.359 91.460,196.821 93.649 " stroke="none" fill="#fc3c3c" fill-rule="evenodd"></path><path id="path3" d="" stroke="none" fill="#a6a6a6" fill-rule="evenodd"></path><path id="path4" d="M197.659 81.814 C 197.918 81.864,198.293 81.862,198.492 81.810 C 198.691 81.758,198.479 81.717,198.021 81.719 C 197.563 81.722,197.400 81.764,197.659 81.814 M201.617 81.814 C 201.876 81.864,202.251 81.862,202.450 81.810 C 202.650 81.758,202.438 81.717,201.979 81.719 C 201.521 81.722,201.358 81.764,201.617 81.814 M178.125 90.729 C 177.619 91.245,177.252 91.667,177.309 91.667 C 177.366 91.667,177.827 91.245,178.333 90.729 C 178.839 90.214,179.207 89.792,179.149 89.792 C 179.092 89.792,178.631 90.214,178.125 90.729 M221.658 90.677 C 222.521 91.597,222.708 91.762,222.708 91.606 C 222.708 91.572,222.263 91.127,221.719 90.616 L 220.729 89.688 221.658 90.677 M181.761 94.427 L 180.938 95.313 181.823 94.489 C 182.646 93.723,182.804 93.542,182.646 93.542 C 182.612 93.542,182.214 93.940,181.761 94.427 M218.021 94.375 C 218.468 94.833,218.881 95.208,218.939 95.208 C 218.996 95.208,218.677 94.833,218.229 94.375 C 217.782 93.917,217.369 93.542,217.311 93.542 C 217.254 93.542,217.573 93.917,218.021 94.375 M181.771 130.833 C 182.218 131.292,182.631 131.667,182.689 131.667 C 182.746 131.667,182.427 131.292,181.979 130.833 C 181.532 130.375,181.119 130.000,181.061 130.000 C 181.004 130.000,181.323 130.375,181.771 130.833 M218.011 130.885 L 217.188 131.771 218.073 130.947 C 218.896 130.181,219.054 130.000,218.896 130.000 C 218.862 130.000,218.464 130.398,218.011 130.885 M178.116 134.427 C 178.627 134.971,179.072 135.417,179.106 135.417 C 179.262 135.417,179.097 135.230,178.177 134.366 L 177.188 133.438 178.116 134.427 M221.667 134.479 C 221.161 134.995,220.793 135.417,220.851 135.417 C 220.908 135.417,221.369 134.995,221.875 134.479 C 222.381 133.964,222.748 133.542,222.691 133.542 C 222.634 133.542,222.173 133.964,221.667 134.479 M197.659 143.481 C 197.918 143.531,198.293 143.529,198.492 143.476 C 198.691 143.424,198.479 143.384,198.021 143.386 C 197.563 143.388,197.400 143.431,197.659 143.481 M201.617 143.481 C 201.876 143.531,202.251 143.529,202.450 143.476 C 202.650 143.424,202.438 143.384,201.979 143.386 C 201.521 143.388,201.358 143.431,201.617 143.481 " stroke="none" fill="#848484" fill-rule="evenodd"></path></g></svg>