<svg id="svg" version="1.1" xmlns="http://www.w3.org/2000/svg" xmlns:xlink="http://www.w3.org/1999/xlink" width="400" height="400.7421150278293" viewBox="0, 0, 400,400.7421150278293"><g id="svgg"><path id="path0" d="M375.325 163.824 C 373.284 164.861,370.111 166.524,368.275 167.520 C 366.438 168.515,361.596 171.034,357.514 173.116 C 353.432 175.199,348.089 177.951,345.640 179.231 C 343.191 180.512,338.266 183.038,334.696 184.844 L 328.204 188.129 283.159 188.035 C 243.563 187.952,238.078 187.873,237.818 187.384 C 237.655 187.078,236.936 185.575,236.221 184.045 C 222.983 155.712,181.585 155.447,168.068 183.609 L 166.790 186.271 118.182 186.286 L 69.573 186.301 65.121 188.647 C 62.672 189.937,56.402 193.171,51.187 195.833 C 45.973 198.496,40.880 201.161,39.870 201.755 C 38.860 202.350,35.028 204.346,31.354 206.190 C 23.557 210.104,13.541 215.353,13.052 215.781 C 12.862 215.948,14.091 218.182,14.372 218.182 C 14.671 218.182,27.713 211.610,29.870 210.373 C 30.686 209.904,34.941 207.697,39.325 205.467 C 43.709 203.237,48.050 200.987,48.972 200.467 C 49.895 199.947,55.038 197.291,60.402 194.565 L 70.154 189.608 117.954 189.702 L 165.755 189.796 165.242 191.554 L 164.729 193.313 116.409 193.410 L 68.089 193.506 64.193 195.502 C 62.050 196.599,58.878 198.249,57.143 199.167 C 51.320 202.250,45.478 205.270,42.486 206.742 C 40.853 207.546,38.516 208.731,37.291 209.377 C 29.172 213.661,24.771 215.922,20.137 218.194 L 14.856 220.783 15.496 222.173 C 15.847 222.937,16.609 224.385,17.187 225.390 C 17.766 226.395,19.073 228.900,20.093 230.956 C 22.439 235.689,22.255 235.543,24.349 234.316 C 25.319 233.748,28.293 232.169,30.960 230.807 C 33.626 229.444,36.141 228.139,36.549 227.906 C 36.957 227.672,38.961 226.656,41.002 225.647 C 43.043 224.638,46.299 222.969,48.237 221.938 C 50.176 220.907,53.850 219.002,56.401 217.704 C 58.952 216.406,62.734 214.480,64.805 213.423 C 66.876 212.367,68.663 211.503,68.775 211.503 C 68.888 211.503,69.948 210.919,71.132 210.205 L 73.284 208.907 119.143 208.906 L 165.003 208.905 165.433 210.340 C 165.669 211.129,165.863 211.880,165.863 212.010 C 165.863 212.139,145.326 212.245,120.225 212.245 L 74.588 212.245 65.587 216.822 C 60.637 219.339,54.750 222.368,52.505 223.553 C 50.260 224.738,45.083 227.409,41.002 229.488 C 36.920 231.568,32.245 233.996,30.612 234.884 C 28.980 235.772,26.779 236.928,25.721 237.452 L 23.799 238.404 24.312 239.610 C 24.980 241.182,24.771 241.227,30.772 238.219 C 33.622 236.790,36.049 235.622,36.166 235.622 C 36.283 235.622,37.001 235.230,37.762 234.751 C 39.882 233.417,49.837 228.248,54.917 225.844 C 55.835 225.409,57.356 224.611,58.296 224.070 C 59.237 223.529,63.429 221.315,67.613 219.150 L 75.221 215.213 121.030 215.213 L 166.839 215.213 167.928 217.510 C 171.707 225.483,181.141 233.945,189.197 236.589 C 206.917 242.406,225.416 235.798,234.547 220.392 L 236.627 216.883 285.939 216.698 L 335.250 216.512 341.448 213.285 C 344.857 211.511,348.029 209.817,348.498 209.522 C 348.967 209.227,353.358 206.940,358.256 204.439 C 363.154 201.938,368.915 198.972,371.058 197.847 C 373.200 196.722,377.625 194.437,380.891 192.769 C 384.156 191.100,387.864 189.197,389.131 188.539 L 391.434 187.342 390.824 186.064 C 390.489 185.362,390.096 184.787,389.951 184.787 C 389.638 184.787,378.089 190.661,377.551 191.094 C 377.347 191.259,373.506 193.251,369.017 195.523 C 364.527 197.794,358.349 200.988,355.288 202.621 C 352.226 204.253,347.551 206.664,344.898 207.979 C 342.245 209.293,338.822 211.041,337.291 211.862 L 334.508 213.356 286.138 213.357 C 240.213 213.358,237.783 213.325,238.047 212.709 C 238.200 212.352,238.541 211.308,238.804 210.390 C 239.083 209.417,239.292 209.068,239.307 209.555 L 239.332 210.390 287.495 210.390 C 318.317 210.390,335.789 210.259,336.021 210.027 C 336.220 209.828,340.302 207.681,345.093 205.255 C 349.884 202.829,355.807 199.792,358.256 198.505 C 360.705 197.219,365.547 194.721,369.017 192.954 C 381.441 186.626,388.689 182.849,389.038 182.519 C 389.443 182.137,383.387 169.671,382.399 168.851 C 381.691 168.264,379.868 168.988,375.221 171.705 C 373.736 172.573,372.427 173.284,372.312 173.284 C 372.029 173.284,365.388 176.584,360.853 178.979 C 358.813 180.057,353.219 182.960,348.423 185.431 C 343.627 187.902,337.738 190.939,335.336 192.179 L 330.969 194.434 285.358 194.434 C 260.272 194.434,239.676 194.309,239.588 194.156 C 239.501 194.003,239.317 193.251,239.178 192.486 L 238.927 191.095 284.233 191.095 L 329.539 191.095 331.467 190.024 C 332.528 189.435,336.902 187.160,341.187 184.969 C 345.473 182.777,350.900 179.974,353.247 178.740 C 355.594 177.506,360.269 175.085,363.636 173.360 C 380.215 164.869,380.385 164.770,380.092 163.822 C 379.472 161.817,379.276 161.817,375.325 163.824 M209.034 169.378 C 245.674 178.017,239.802 232.389,202.226 232.410 C 180.083 232.423,165.640 212.325,171.976 190.318 C 176.207 175.624,193.671 165.756,209.034 169.378 " stroke="none" fill="#272727" fill-rule="evenodd"></path><path id="path1" d="M182.746 2.048 C 53.694 13.862,-30.167 141.631,10.565 264.378 C 41.969 359.017,138.988 415.926,237.291 397.371 C 355.905 374.982,427.564 252.750,389.435 137.848 C 360.490 50.620,273.866 -6.294,182.746 2.048 M379.955 162.879 C 380.368 163.688,380.705 164.420,380.705 164.507 C 380.705 164.659,373.151 168.898,370.872 170.025 C 367.789 171.549,352.774 179.278,350.835 180.339 C 349.610 181.008,344.685 183.549,339.889 185.985 C 335.093 188.421,331.010 190.567,330.816 190.754 C 330.607 190.957,312.012 191.095,284.898 191.095 C 234.588 191.095,238.939 190.890,239.566 193.228 L 239.790 194.063 285.310 194.063 L 330.831 194.063 335.082 191.913 C 339.527 189.665,352.858 182.797,360.482 178.826 C 364.593 176.686,377.692 169.957,380.703 168.440 C 381.416 168.080,382.116 167.858,382.259 167.946 C 382.535 168.117,385.362 173.094,386.239 174.954 C 386.528 175.566,387.405 177.387,388.187 179.001 C 388.970 180.615,389.609 182.118,389.608 182.341 C 389.606 182.564,386.475 184.356,382.650 186.324 C 378.825 188.292,373.442 191.070,370.686 192.498 C 363.811 196.061,354.692 200.735,344.388 205.977 L 335.715 210.390 287.378 210.390 L 239.041 210.390 238.817 211.283 C 238.694 211.774,238.491 212.442,238.366 212.767 C 238.160 213.306,242.369 213.358,285.993 213.358 L 333.846 213.358 336.404 212.005 C 337.810 211.261,341.716 209.237,345.083 207.506 C 352.005 203.950,358.292 200.686,364.007 197.682 C 368.135 195.513,380.856 188.967,383.685 187.557 C 384.609 187.096,386.244 186.201,387.319 185.567 C 389.739 184.140,390.187 184.133,390.900 185.510 C 391.792 187.236,391.605 187.626,389.332 188.787 C 388.159 189.386,385.445 190.798,383.302 191.924 C 381.160 193.050,376.317 195.556,372.542 197.494 C 364.441 201.651,356.601 205.698,349.165 209.563 C 346.206 211.100,342.032 213.269,339.889 214.382 C 337.746 215.495,335.834 216.555,335.640 216.737 C 335.437 216.928,314.419 217.069,286.019 217.069 L 236.750 217.069 235.955 218.646 C 222.084 246.183,183.154 245.817,167.867 218.005 L 166.537 215.584 120.958 215.584 L 75.378 215.584 68.580 219.049 C 64.840 220.954,60.362 223.273,58.627 224.201 C 56.892 225.129,52.384 227.472,48.609 229.406 C 44.833 231.341,37.953 234.875,33.320 237.260 L 24.896 241.597 24.136 240.108 C 23.718 239.289,23.377 238.531,23.377 238.422 C 23.377 238.313,25.506 237.143,28.108 235.821 C 30.710 234.499,34.759 232.392,37.106 231.138 C 39.453 229.885,42.542 228.282,43.970 227.575 C 47.467 225.846,50.950 224.051,55.844 221.456 C 58.089 220.266,63.098 217.664,66.976 215.675 L 74.026 212.059 119.715 211.874 L 165.404 211.688 164.984 210.390 L 164.564 209.091 119.481 209.009 C 71.623 208.921,73.590 208.851,70.686 210.735 C 69.870 211.265,68.451 212.028,67.532 212.432 C 66.614 212.835,64.694 213.815,63.265 214.609 C 61.837 215.403,59.332 216.697,57.699 217.484 C 56.067 218.271,54.063 219.266,53.247 219.695 C 48.812 222.025,42.094 225.496,35.123 229.058 C 30.805 231.264,26.271 233.600,25.046 234.250 C 23.822 234.899,22.715 235.481,22.586 235.542 C 22.100 235.774,14.285 220.938,14.744 220.654 C 15.636 220.103,31.358 212.099,32.751 211.487 C 33.207 211.287,34.165 210.765,34.879 210.328 C 35.594 209.892,39.852 207.667,44.341 205.385 C 48.831 203.103,54.592 200.141,57.143 198.803 C 59.694 197.465,63.270 195.600,65.090 194.660 L 68.399 192.950 116.367 192.950 C 142.749 192.950,164.413 192.823,164.508 192.669 C 164.604 192.514,164.799 191.763,164.943 190.999 L 165.203 189.610 117.759 189.612 L 70.315 189.613 69.017 190.415 C 68.302 190.855,63.460 193.377,58.256 196.019 C 53.052 198.660,48.627 200.955,48.423 201.118 C 48.219 201.281,43.711 203.618,38.404 206.312 C 33.098 209.006,28.590 211.339,28.386 211.497 C 27.552 212.141,14.715 218.553,14.258 218.553 C 13.613 218.553,12.404 216.018,12.842 215.583 C 13.257 215.169,23.007 210.021,33.210 204.828 C 37.495 202.647,42.338 200.140,43.970 199.257 C 45.603 198.374,50.111 196.038,53.989 194.065 C 57.866 192.091,62.810 189.531,64.975 188.374 L 68.911 186.271 117.683 186.271 L 166.456 186.271 166.909 185.018 C 167.765 182.650,172.622 175.798,175.275 173.216 C 194.592 154.411,226.371 160.490,237.167 185.056 L 238.353 187.755 283.329 187.755 L 328.305 187.755 335.859 183.906 C 340.014 181.789,344.917 179.262,346.753 178.290 C 348.590 177.318,353.265 174.903,357.143 172.924 C 361.020 170.944,365.863 168.438,367.904 167.353 C 369.944 166.269,373.284 164.494,375.325 163.410 C 377.365 162.326,379.074 161.432,379.120 161.425 C 379.167 161.417,379.543 162.071,379.955 162.879 M196.231 169.519 C 179.723 172.394,167.661 189.966,171.107 206.122 C 175.954 228.852,199.248 239.147,219.109 227.336 C 239.092 215.454,237.861 183.278,217.024 172.839 C 209.251 168.945,204.179 168.135,196.231 169.519 M208.720 177.526 C 227.914 182.685,232.361 208.406,216.083 220.111 C 202.076 230.182,182.244 222.310,178.676 205.263 C 175.072 188.047,191.485 172.894,208.720 177.526 " stroke="none" fill="#fbfbfb" fill-rule="evenodd"></path><path id="path2" d="M198.187 177.197 C 176.427 181.917,171.251 208.461,189.689 220.773 C 205.001 230.998,225.817 219.330,225.759 200.557 C 225.712 185.674,212.135 174.171,198.187 177.197 " stroke="none" fill="#fb3c3c" fill-rule="evenodd"></path><path id="path3" d="M198.609 162.408 C 198.966 162.501,199.550 162.501,199.907 162.408 C 200.264 162.315,199.972 162.238,199.258 162.238 C 198.544 162.238,198.251 162.315,198.609 162.408 M204.174 162.408 C 204.532 162.501,205.116 162.501,205.473 162.408 C 205.830 162.315,205.538 162.238,204.824 162.238 C 204.109 162.238,203.817 162.315,204.174 162.408 M227.458 171.916 C 227.458 171.980,228.001 172.522,228.664 173.122 L 229.870 174.212 228.780 173.006 C 227.764 171.881,227.458 171.629,227.458 171.916 M185.145 183.952 L 183.117 186.085 185.250 184.057 C 187.233 182.173,187.554 181.818,187.279 181.818 C 187.221 181.818,186.261 182.778,185.145 183.952 M217.069 181.941 C 217.069 182.043,217.737 182.656,218.553 183.302 C 219.369 183.949,220.037 184.394,220.037 184.292 C 220.037 184.190,219.369 183.578,218.553 182.931 C 217.737 182.285,217.069 181.839,217.069 181.941 M167.036 184.617 C 166.414 185.981,166.533 186.273,167.205 185.032 C 167.519 184.453,167.707 183.909,167.622 183.825 C 167.537 183.740,167.273 184.096,167.036 184.617 M222.556 188.126 C 222.961 188.840,223.670 190.472,224.130 191.753 C 224.590 193.033,225.031 194.016,225.110 193.937 C 225.383 193.664,223.346 188.680,222.584 187.755 L 221.819 186.827 222.556 188.126 M262.459 194.341 C 275.077 194.395,295.615 194.395,308.099 194.341 C 320.583 194.287,310.260 194.243,285.158 194.243 C 260.056 194.243,249.841 194.287,262.459 194.341 M233.535 200.742 C 233.535 203.089,233.596 204.049,233.669 202.876 C 233.743 201.702,233.743 199.782,233.669 198.609 C 233.596 197.435,233.535 198.395,233.535 200.742 M178.194 198.887 C 178.194 199.601,178.270 199.893,178.363 199.536 C 178.457 199.179,178.457 198.595,178.363 198.237 C 178.270 197.880,178.194 198.173,178.194 198.887 M39.703 207.607 C 39.193 207.898,38.942 208.137,39.147 208.137 C 39.351 208.137,39.935 207.898,40.445 207.607 C 40.955 207.315,41.206 207.076,41.002 207.076 C 40.798 207.076,40.213 207.315,39.703 207.607 M96.939 212.152 C 109.541 212.206,130.162 212.206,142.764 212.152 C 155.366 212.098,145.056 212.054,119.852 212.054 C 94.647 212.054,84.337 212.098,96.939 212.152 M91.651 215.487 C 135.244 215.742,166.889 215.743,166.733 215.492 C 166.638 215.339,145.991 215.253,120.850 215.302 C 95.709 215.351,82.570 215.434,91.651 215.487 M219.463 217.161 L 217.996 218.738 219.573 217.272 C 221.040 215.908,221.321 215.584,221.040 215.584 C 220.979 215.584,220.270 216.294,219.463 217.161 M286.085 216.698 L 236.549 216.887 285.971 216.978 C 318.616 217.038,335.470 216.943,335.622 216.698 C 335.748 216.494,335.799 216.367,335.736 216.417 C 335.673 216.467,313.330 216.593,286.085 216.698 M184.972 217.304 C 185.176 217.484,185.927 218.131,186.641 218.741 L 187.938 219.852 187.012 218.797 C 186.502 218.217,185.751 217.571,185.343 217.360 C 184.935 217.150,184.768 217.125,184.972 217.304 M176.994 220.037 C 177.430 220.649,177.871 221.150,177.973 221.150 C 178.075 221.150,177.801 220.649,177.365 220.037 C 176.930 219.425,176.489 218.924,176.387 218.924 C 176.285 218.924,176.558 219.425,176.994 220.037 M223.923 223.469 L 221.336 226.160 224.026 223.572 C 226.525 221.169,226.886 220.779,226.613 220.779 C 226.557 220.779,225.346 221.990,223.923 223.469 M175.495 228.293 C 177.032 229.931,177.365 230.226,177.365 229.947 C 177.365 229.888,176.572 229.095,175.603 228.185 L 173.840 226.531 175.495 228.293 M201.020 239.229 C 201.684 239.312,202.769 239.312,203.432 239.229 C 204.096 239.147,203.553 239.080,202.226 239.080 C 200.900 239.080,200.357 239.147,201.020 239.229 " stroke="none" fill="#aaaaaa" fill-rule="evenodd"></path><path id="path4" d="M201.211 162.418 C 201.775 162.504,202.610 162.501,203.066 162.413 C 203.523 162.325,203.061 162.255,202.041 162.258 C 201.020 162.261,200.647 162.333,201.211 162.418 M206.030 162.779 C 206.387 162.872,206.971 162.872,207.328 162.779 C 207.686 162.686,207.393 162.609,206.679 162.609 C 205.965 162.609,205.673 162.686,206.030 162.779 M200.835 168.730 C 201.600 168.810,202.853 168.810,203.618 168.730 C 204.383 168.650,203.757 168.585,202.226 168.585 C 200.696 168.585,200.070 168.650,200.835 168.730 M227.087 171.985 C 227.780 172.699,228.429 173.284,228.531 173.284 C 228.634 173.284,228.151 172.699,227.458 171.985 C 226.766 171.271,226.116 170.686,226.014 170.686 C 225.912 170.686,226.395 171.271,227.087 171.985 M174.569 174.119 L 172.727 176.067 174.675 174.225 C 175.747 173.213,176.623 172.336,176.623 172.277 C 176.623 172.001,176.280 172.309,174.569 174.119 M179.766 177.829 L 177.551 180.148 179.870 177.934 C 182.024 175.876,182.359 175.510,182.085 175.510 C 182.027 175.510,180.984 176.554,179.766 177.829 M260.761 188.033 C 273.261 188.088,293.715 188.088,306.215 188.033 C 318.715 187.979,308.488 187.935,283.488 187.935 C 258.488 187.935,248.261 187.979,260.761 188.033 M68.403 193.234 C 68.017 193.479,116.504 193.473,151.391 193.223 C 158.840 193.170,143.312 193.089,116.883 193.044 C 90.455 192.998,68.638 193.084,68.403 193.234 M38.497 205.778 C 37.110 206.531,37.194 206.844,38.590 206.122 C 39.202 205.806,39.703 205.468,39.703 205.371 C 39.703 205.132,39.663 205.145,38.497 205.778 M57.885 216.883 C 57.375 217.175,57.124 217.413,57.328 217.413 C 57.532 217.413,58.117 217.175,58.627 216.883 C 59.137 216.591,59.388 216.353,59.184 216.353 C 58.980 216.353,58.395 216.591,57.885 216.883 M223.168 224.583 L 222.078 225.788 223.284 224.699 C 223.947 224.099,224.490 223.557,224.490 223.493 C 224.490 223.206,224.184 223.458,223.168 224.583 M229.685 226.902 C 228.783 227.820,228.129 228.571,228.231 228.571 C 228.333 228.571,229.154 227.820,230.056 226.902 C 230.957 225.983,231.611 225.232,231.509 225.232 C 231.407 225.232,230.586 225.983,229.685 226.902 M176.608 229.035 C 178.146 230.674,178.479 230.968,178.479 230.690 C 178.479 230.630,177.686 229.837,176.716 228.927 L 174.954 227.273 176.608 229.035 M200.835 232.552 C 201.600 232.632,202.853 232.632,203.618 232.552 C 204.383 232.472,203.757 232.407,202.226 232.407 C 200.696 232.407,200.070 232.472,200.835 232.552 M198.243 238.856 C 198.807 238.942,199.641 238.939,200.098 238.851 C 200.554 238.763,200.093 238.693,199.072 238.696 C 198.052 238.699,197.679 238.771,198.243 238.856 M204.360 238.852 C 204.819 238.940,205.571 238.940,206.030 238.852 C 206.489 238.763,206.113 238.691,205.195 238.691 C 204.276 238.691,203.901 238.763,204.360 238.852 " stroke="none" fill="#848484" fill-rule="evenodd"></path></g></svg>