<svg id="svg" version="1.1" xmlns="http://www.w3.org/2000/svg" xmlns:xlink="http://www.w3.org/1999/xlink" width="400" height="400" viewBox="0, 0, 400,400"><g id="svgg"><path id="path0" d="M195.185 159.057 C 194.880 159.132,193.389 159.395,191.873 159.643 C 180.071 161.570,168.524 170.511,163.322 181.750 L 162.246 184.074 111.448 184.074 L 60.650 184.074 50.418 189.309 C 44.790 192.188,37.519 195.916,34.259 197.593 C 31.000 199.271,25.250 202.228,21.481 204.165 C 5.390 212.434,2.030 214.170,1.913 214.274 C 1.738 214.429,2.990 217.010,3.346 217.230 C 3.507 217.330,5.945 216.225,8.764 214.776 C 11.583 213.327,17.639 210.221,22.222 207.874 C 26.806 205.527,32.722 202.483,35.370 201.109 C 38.019 199.735,44.685 196.319,50.185 193.518 C 55.685 190.717,60.344 188.279,60.537 188.101 C 60.734 187.920,82.925 187.778,110.932 187.778 L 160.975 187.778 160.589 189.444 L 160.202 191.111 109.990 191.111 C 82.373 191.111,59.619 191.254,59.426 191.429 C 59.232 191.604,54.741 193.959,49.444 196.663 C 44.148 199.367,38.148 202.452,36.111 203.518 C 34.074 204.585,27.907 207.753,22.407 210.559 C 9.361 217.214,4.703 219.648,4.304 220.017 C 4.122 220.185,4.845 222.006,5.940 224.140 C 7.019 226.243,8.708 229.533,9.692 231.451 C 10.677 233.370,11.552 235.009,11.636 235.093 C 11.773 235.230,21.113 230.530,35.000 223.338 C 37.648 221.966,43.815 218.797,48.704 216.295 C 53.593 213.793,59.300 210.853,61.386 209.762 L 65.179 207.778 112.739 207.778 L 160.298 207.778 160.705 208.944 C 160.928 209.586,161.111 210.252,161.111 210.426 C 161.111 210.599,139.851 210.741,113.867 210.741 L 66.623 210.741 58.589 214.863 C 54.171 217.130,48.222 220.192,45.370 221.667 C 40.541 224.165,31.448 228.836,19.074 235.173 C 12.877 238.347,13.177 238.090,13.924 239.589 C 14.783 241.310,15.133 241.320,18.189 239.702 C 19.694 238.906,25.593 235.873,31.296 232.964 C 37.000 230.054,43.500 226.720,45.741 225.554 C 47.981 224.389,53.924 221.329,58.945 218.755 L 68.076 214.074 115.266 214.074 L 162.456 214.074 163.266 216.019 C 165.126 220.488,170.283 227.021,174.531 230.290 C 194.370 245.559,222.637 239.768,234.279 218.050 L 235.424 215.916 286.826 215.923 L 338.229 215.931 348.466 210.694 C 354.097 207.813,361.370 204.084,364.630 202.407 C 367.889 200.729,373.639 197.772,377.407 195.835 C 393.499 187.566,396.859 185.830,396.976 185.726 C 397.151 185.571,395.899 182.990,395.543 182.770 C 395.382 182.670,392.944 183.775,390.125 185.224 C 387.306 186.673,381.250 189.779,376.667 192.126 C 372.083 194.473,366.167 197.517,363.519 198.891 C 360.870 200.265,354.204 203.681,348.704 206.482 C 343.204 209.283,338.545 211.721,338.352 211.899 C 337.953 212.265,237.037 212.353,237.037 211.987 C 237.037 211.858,237.230 211.108,237.466 210.321 L 237.895 208.889 288.503 208.889 C 316.337 208.889,339.269 208.746,339.463 208.571 C 339.656 208.396,344.148 206.041,349.444 203.337 C 354.741 200.633,360.741 197.548,362.778 196.482 C 364.815 195.415,370.981 192.247,376.481 189.441 C 389.528 182.786,394.186 180.352,394.585 179.983 C 394.767 179.815,394.044 177.994,392.949 175.860 C 391.870 173.757,390.181 170.467,389.197 168.549 C 388.212 166.630,387.337 164.991,387.253 164.907 C 387.116 164.770,377.775 169.470,363.889 176.662 C 361.241 178.034,355.074 181.203,350.185 183.705 C 345.296 186.207,339.589 189.147,337.503 190.238 L 333.710 192.222 286.160 192.222 L 238.611 192.222 238.380 191.065 C 238.252 190.428,238.148 189.762,238.148 189.583 C 238.148 189.400,258.563 189.259,285.207 189.259 L 332.266 189.259 340.300 185.137 C 344.718 182.870,350.667 179.808,353.519 178.333 C 358.347 175.835,367.441 171.164,379.815 164.827 C 386.012 161.653,385.712 161.910,384.965 160.411 C 384.106 158.690,383.756 158.680,380.700 160.298 C 379.195 161.094,373.296 164.127,367.593 167.036 C 361.889 169.946,355.389 173.280,353.148 174.446 C 350.907 175.611,344.964 178.672,339.941 181.247 L 330.807 185.929 283.918 185.835 L 237.029 185.741 235.444 182.222 C 230.333 170.879,220.315 162.731,207.871 159.797 C 205.597 159.261,196.524 158.732,195.185 159.057 M204.815 165.949 C 228.100 169.704,240.106 197.057,227.240 217.037 C 212.580 239.801,177.904 236.271,168.409 211.047 C 159.221 186.641,179.253 161.827,204.815 165.949 " stroke="none" fill="#fafafa" fill-rule="evenodd"></path><path id="path1" d="M153.148 1.101 C 76.153 19.237,16.705 80.785,1.141 158.475 L 0.000 164.173 0.000 198.007 L 0.000 231.840 1.140 237.494 C 22.260 342.258,120.383 412.351,226.296 398.333 C 315.231 386.561,386.357 316.538,399.440 227.873 C 400.263 222.294,400.263 173.632,399.440 168.053 C 387.424 86.621,325.658 19.601,245.556 1.079 L 240.926 0.009 199.259 0.031 L 157.593 0.054 153.148 1.101 M384.890 160.027 C 385.849 161.959,385.906 161.900,380.278 164.788 C 377.375 166.277,371.833 169.123,367.963 171.111 C 364.093 173.099,357.265 176.597,352.791 178.883 C 348.317 181.170,341.948 184.440,338.639 186.150 L 332.621 189.259 285.345 189.259 C 242.388 189.259,238.089 189.313,238.294 189.845 C 238.417 190.167,238.519 190.751,238.519 191.141 C 238.519 191.838,239.444 191.852,286.256 191.852 L 333.994 191.852 339.127 189.223 C 343.883 186.786,350.103 183.582,363.148 176.849 C 366.000 175.377,372.595 171.992,377.804 169.326 L 387.275 164.480 391.232 172.217 C 393.409 176.472,395.049 180.041,394.876 180.147 C 394.476 180.395,388.150 183.665,378.704 188.508 C 359.828 198.186,355.792 200.259,351.296 202.590 C 348.648 203.963,344.800 205.943,342.744 206.991 L 339.007 208.897 288.526 208.985 L 238.045 209.074 237.580 210.648 L 237.115 212.222 287.179 212.222 L 337.243 212.222 339.269 211.173 C 340.384 210.596,344.796 208.324,349.074 206.126 C 353.352 203.927,359.519 200.754,362.778 199.074 C 366.037 197.395,372.704 193.972,377.593 191.469 C 382.481 188.965,388.548 185.858,391.074 184.563 C 393.600 183.269,395.687 182.254,395.711 182.309 C 395.735 182.363,396.107 183.162,396.537 184.084 L 397.318 185.761 393.196 187.906 C 390.929 189.086,383.991 192.646,377.778 195.817 C 371.565 198.989,364.981 202.369,363.148 203.329 C 361.315 204.290,355.315 207.373,349.815 210.182 C 344.315 212.991,339.627 215.435,339.397 215.615 C 339.161 215.799,316.527 215.936,287.250 215.930 L 235.521 215.919 234.972 217.126 C 221.633 246.457,177.191 245.886,163.143 216.204 L 162.136 214.074 115.273 214.074 L 68.411 214.074 60.039 218.385 C 51.349 222.860,44.534 226.360,31.296 233.146 C 27.019 235.339,21.634 238.124,19.331 239.335 C 16.354 240.901,15.013 241.429,14.692 241.163 C 14.222 240.773,13.170 238.187,13.392 237.967 C 13.564 237.796,24.191 232.322,46.481 220.922 C 50.759 218.735,56.961 215.549,60.263 213.843 L 66.268 210.741 113.689 210.741 C 139.771 210.741,161.111 210.682,161.111 210.611 C 161.111 210.539,160.928 209.956,160.705 209.315 L 160.298 208.148 112.596 208.148 L 64.895 208.148 59.762 210.777 C 55.006 213.214,48.786 216.418,35.741 223.151 C 32.889 224.623,26.294 228.008,21.085 230.674 L 11.614 235.520 7.657 227.783 C 5.480 223.528,3.840 219.959,4.013 219.853 C 4.446 219.585,11.224 216.084,20.926 211.118 C 25.407 208.823,31.241 205.823,33.889 204.451 C 36.537 203.079,43.204 199.658,48.704 196.849 C 54.204 194.040,58.890 191.598,59.118 191.421 C 59.347 191.244,82.005 191.104,109.748 191.108 L 159.964 191.116 160.350 189.725 C 160.563 188.959,160.738 188.208,160.739 188.056 C 160.740 187.903,138.444 187.778,111.193 187.778 L 61.646 187.778 59.619 188.827 C 58.505 189.404,54.093 191.676,49.815 193.874 C 45.537 196.073,39.370 199.246,36.111 200.926 C 32.852 202.605,26.185 206.028,21.296 208.531 C 16.407 211.035,10.341 214.142,7.815 215.437 C 5.289 216.731,3.202 217.746,3.178 217.691 C 3.153 217.637,2.782 216.838,2.352 215.916 L 1.571 214.239 5.693 212.094 C 7.960 210.914,14.898 207.354,21.111 204.183 C 27.324 201.011,33.907 197.631,35.741 196.671 C 37.574 195.710,43.574 192.627,49.074 189.818 C 54.574 187.009,59.262 184.565,59.492 184.385 C 59.728 184.200,82.082 184.064,110.999 184.070 L 162.089 184.082 163.143 181.763 C 174.429 156.934,207.779 150.992,227.301 170.332 C 231.515 174.506,235.868 181.188,236.797 184.907 L 237.051 185.926 283.762 185.926 L 330.473 185.926 339.218 181.426 C 352.637 174.520,358.272 171.625,368.333 166.469 C 373.426 163.859,378.926 161.008,380.556 160.133 C 383.944 158.315,384.038 158.313,384.890 160.027 M195.185 165.914 C 171.276 168.800,158.320 196.655,171.499 216.842 C 186.883 240.408,222.069 235.867,230.695 209.202 C 238.185 186.052,219.280 163.007,195.185 165.914 M205.917 174.787 C 226.679 180.541,231.062 208.138,213.062 219.775 C 197.952 229.545,177.981 220.871,174.835 203.173 C 171.693 185.497,188.658 170.005,205.917 174.787 " stroke="none" fill="#242424" fill-rule="evenodd"></path><path id="path2" d="M193.521 174.672 C 178.607 178.278,170.190 195.655,176.771 209.256 C 188.090 232.649,222.282 226.259,224.315 200.370 C 225.589 184.153,209.577 170.791,193.521 174.672 " stroke="none" fill="#fb3b3b" fill-rule="evenodd"></path><path id="path3" d="M262.500 192.130 C 275.588 192.184,297.005 192.184,310.093 192.130 C 323.181 192.076,312.472 192.031,286.296 192.031 C 260.120 192.031,249.412 192.076,262.500 192.130 M88.796 208.056 C 101.884 208.109,123.301 208.109,136.389 208.056 C 149.477 208.002,138.769 207.957,112.593 207.957 C 86.417 207.957,75.708 208.002,88.796 208.056 " stroke="none" fill="#686868" fill-rule="evenodd"></path><path id="path4" d="M166.053 199.074 C 166.054 200.704,166.119 201.324,166.198 200.453 C 166.276 199.582,166.275 198.249,166.195 197.490 C 166.116 196.732,166.052 197.444,166.053 199.074 " stroke="none" fill="#8c8c8c" fill-rule="evenodd"></path></g></svg>