<svg id="svg" version="1.1" xmlns="http://www.w3.org/2000/svg" xmlns:xlink="http://www.w3.org/1999/xlink" width="400" height="225" viewBox="0, 0, 400,225"><g id="svgg"><path id="path0" d="M196.250 93.620 C 178.608 97.701,175.097 121.068,190.850 129.563 C 206.387 137.941,224.130 122.839,218.343 106.163 C 215.283 97.345,205.111 91.570,196.250 93.620 " stroke="none" fill="#fc3c3c" fill-rule="evenodd"></path><path id="path1" d="M335.104 85.185 C 330.979 87.323,323.901 90.983,319.375 93.317 C 314.849 95.651,309.109 98.625,306.619 99.927 L 302.093 102.293 265.614 102.240 L 229.135 102.188 228.442 100.521 C 218.153 75.777,182.995 75.357,171.820 99.844 L 171.273 101.042 131.920 101.042 L 92.567 101.042 88.210 103.300 C 85.814 104.542,79.073 108.026,73.229 111.042 C 53.723 121.109,47.005 124.593,46.902 124.695 C 46.815 124.782,47.913 127.292,48.039 127.292 C 48.064 127.292,50.133 126.228,52.636 124.928 C 55.139 123.628,62.063 120.049,68.021 116.974 C 73.979 113.900,82.177 109.666,86.239 107.567 L 93.624 103.750 131.992 103.750 L 170.360 103.750 170.036 105.104 L 169.712 106.458 130.835 106.458 C 107.167 106.458,91.881 106.534,91.760 106.652 C 91.575 106.833,88.843 108.254,80.625 112.445 C 78.734 113.409,76.039 114.794,74.635 115.523 C 73.232 116.253,72.083 116.810,72.083 116.762 C 72.083 116.715,71.377 117.104,70.515 117.628 C 69.652 118.152,68.832 118.598,68.692 118.619 C 68.552 118.640,67.626 119.100,66.635 119.641 C 65.643 120.182,64.690 120.625,64.517 120.625 C 64.343 120.625,64.170 120.708,64.132 120.810 C 64.094 120.912,61.531 122.283,58.438 123.858 C 53.641 126.300,49.240 128.573,48.707 128.885 C 48.626 128.933,48.814 129.414,49.124 129.954 C 49.434 130.495,50.803 133.152,52.166 135.859 L 54.645 140.781 58.208 138.952 C 60.168 137.945,63.458 136.256,65.521 135.197 C 67.583 134.138,70.818 132.472,72.708 131.494 C 76.272 129.650,80.900 127.269,86.458 124.417 C 88.234 123.506,91.170 121.998,92.983 121.067 L 96.278 119.374 133.073 119.427 L 169.869 119.479 170.139 120.521 C 170.287 121.094,170.410 121.633,170.413 121.719 C 170.415 121.805,153.796 121.875,133.482 121.875 L 96.547 121.875 88.325 126.111 C 60.696 140.348,55.978 142.793,55.655 143.043 C 55.539 143.132,56.886 145.417,57.055 145.417 C 57.136 145.417,60.903 143.510,65.425 141.180 C 88.175 129.458,94.622 126.125,96.167 125.289 L 97.855 124.375 134.631 124.375 L 171.407 124.375 171.856 125.419 C 178.286 140.366,196.600 147.610,211.849 141.238 C 218.591 138.421,225.009 132.398,227.652 126.406 L 227.997 125.625 267.715 125.625 L 307.433 125.625 311.790 123.367 C 314.186 122.124,320.927 118.641,326.771 115.625 C 346.277 105.558,352.995 102.074,353.098 101.972 C 353.185 101.884,352.087 99.375,351.961 99.375 C 351.936 99.375,349.867 100.439,347.364 101.739 C 344.861 103.038,337.938 106.618,331.979 109.692 C 326.021 112.767,317.823 117.000,313.761 119.100 L 306.376 122.917 267.771 122.917 C 246.539 122.917,229.170 122.893,229.175 122.865 C 229.273 122.230,230.189 119.617,230.197 119.948 L 230.208 120.417 269.229 120.417 C 292.986 120.417,308.327 120.341,308.448 120.223 C 308.633 120.042,311.365 118.621,319.583 114.430 C 321.474 113.466,324.169 112.081,325.573 111.352 C 326.977 110.622,328.125 110.065,328.125 110.113 C 328.125 110.160,328.831 109.771,329.694 109.247 C 330.556 108.723,331.377 108.277,331.517 108.256 C 331.656 108.235,332.582 107.775,333.574 107.234 C 334.565 106.693,335.518 106.250,335.692 106.250 C 335.865 106.250,336.038 106.167,336.076 106.065 C 336.115 105.963,338.677 104.592,341.771 103.017 C 346.568 100.575,350.969 98.302,351.501 97.990 C 351.582 97.942,351.394 97.461,351.084 96.921 C 350.774 96.380,349.405 93.723,348.042 91.016 L 345.563 86.094 341.896 87.980 C 339.879 89.017,336.589 90.706,334.583 91.734 C 332.578 92.762,329.391 94.403,327.500 95.381 C 323.948 97.218,319.351 99.585,313.750 102.458 C 311.974 103.369,309.038 104.877,307.227 105.807 L 303.932 107.500 267.202 107.500 L 230.471 107.500 230.353 106.823 C 230.288 106.451,230.171 105.841,230.092 105.469 L 229.948 104.792 266.701 104.792 L 303.453 104.792 311.675 100.555 C 339.304 86.319,344.022 83.873,344.345 83.624 C 344.508 83.498,343.078 81.252,342.849 81.274 C 342.714 81.287,339.229 83.047,335.104 85.185 M204.792 87.432 C 222.281 90.884,231.129 111.065,221.709 126.021 C 209.346 145.651,179.943 140.483,175.000 117.813 C 171.169 100.244,187.148 83.949,204.792 87.432 " stroke="none" fill="#242424" fill-rule="evenodd"></path><path id="path2" d="M343.594 86.881 C 342.992 87.226,342.500 87.560,342.500 87.624 C 342.500 87.716,344.656 86.584,344.983 86.320 C 345.355 86.019,344.482 86.372,343.594 86.881 M340.156 88.660 C 339.612 88.943,339.167 89.221,339.167 89.278 C 339.167 89.371,341.229 88.397,341.441 88.204 C 341.699 87.969,341.021 88.209,340.156 88.660 M346.667 88.200 C 346.667 88.427,347.910 90.833,348.027 90.833 C 348.084 90.833,347.837 90.247,347.478 89.531 C 346.798 88.174,346.667 87.959,346.667 88.200 M336.563 90.526 C 336.104 90.809,335.823 91.037,335.938 91.034 C 336.052 91.031,336.521 90.798,336.979 90.515 C 337.438 90.233,337.719 90.005,337.604 90.008 C 337.490 90.011,337.021 90.244,336.563 90.526 M348.528 91.943 C 348.757 92.547,349.581 93.913,349.583 93.691 C 349.584 93.464,348.556 91.458,348.439 91.458 C 348.387 91.458,348.427 91.676,348.528 91.943 M333.333 92.188 C 332.818 92.464,332.490 92.690,332.604 92.690 C 332.719 92.690,333.234 92.464,333.750 92.188 C 334.266 91.911,334.594 91.685,334.479 91.685 C 334.365 91.685,333.849 91.911,333.333 92.188 M329.583 94.167 C 329.182 94.386,328.929 94.570,329.021 94.575 C 329.242 94.586,330.417 93.975,330.417 93.849 C 330.417 93.712,330.404 93.717,329.583 94.167 M326.250 95.833 C 325.620 96.166,325.198 96.439,325.313 96.439 C 325.427 96.439,326.036 96.166,326.667 95.833 C 327.297 95.500,327.719 95.228,327.604 95.228 C 327.490 95.228,326.880 95.500,326.250 95.833 M350.208 95.316 C 350.208 95.485,351.488 97.708,351.585 97.708 C 351.633 97.708,351.389 97.146,351.042 96.458 C 350.484 95.353,350.208 94.976,350.208 95.316 M322.604 97.726 C 322.031 98.055,321.636 98.326,321.726 98.328 C 321.953 98.335,323.958 97.307,323.958 97.184 C 323.958 97.001,323.658 97.121,322.604 97.726 M319.167 99.479 C 318.422 99.869,317.885 100.193,317.975 100.198 C 318.196 100.212,320.625 98.978,320.625 98.851 C 320.625 98.711,320.674 98.690,319.167 99.479 M348.229 99.693 C 347.771 99.975,347.470 100.207,347.560 100.207 C 347.792 100.209,349.375 99.388,349.375 99.267 C 349.375 99.067,349.046 99.190,348.229 99.693 M315.729 101.259 C 315.156 101.596,314.761 101.872,314.851 101.873 C 315.082 101.876,317.083 100.847,317.083 100.726 C 317.083 100.526,316.753 100.656,315.729 101.259 M344.583 101.563 C 344.068 101.839,343.740 102.065,343.854 102.065 C 343.969 102.065,344.484 101.839,345.000 101.563 C 345.516 101.286,345.844 101.060,345.729 101.060 C 345.615 101.060,345.099 101.286,344.583 101.563 M311.979 103.134 C 311.406 103.471,311.011 103.747,311.101 103.748 C 311.332 103.751,313.333 102.722,313.333 102.601 C 313.333 102.401,313.003 102.531,311.979 103.134 M341.146 103.342 C 340.573 103.679,340.178 103.956,340.267 103.957 C 340.499 103.959,342.500 102.930,342.500 102.809 C 342.500 102.610,342.170 102.740,341.146 103.342 M308.646 104.892 C 307.207 105.721,307.247 105.873,308.705 105.113 C 309.923 104.477,310.375 104.173,310.104 104.172 C 309.990 104.172,309.333 104.496,308.646 104.892 M337.396 105.217 C 336.823 105.554,336.428 105.831,336.517 105.832 C 336.749 105.834,338.750 104.805,338.750 104.684 C 338.750 104.485,338.420 104.615,337.396 105.217 M305.052 106.688 C 304.451 107.039,303.958 107.367,303.958 107.417 C 303.958 107.512,305.717 106.626,306.250 106.262 C 306.954 105.780,306.068 106.096,305.052 106.688 M334.063 106.975 C 332.623 107.805,332.664 107.956,334.122 107.196 C 335.339 106.561,335.792 106.257,335.521 106.256 C 335.406 106.255,334.750 106.579,334.063 106.975 M90.570 107.121 C 89.910 107.479,89.408 107.811,89.455 107.858 C 89.547 107.950,91.875 106.684,91.875 106.543 C 91.875 106.415,91.857 106.423,90.570 107.121 M330.469 108.772 C 329.867 109.122,329.375 109.450,329.375 109.500 C 329.375 109.652,331.420 108.564,331.560 108.337 C 331.745 108.038,331.691 108.059,330.469 108.772 M86.979 108.967 C 85.809 109.656,85.851 109.803,87.040 109.175 C 88.056 108.637,88.486 108.338,88.229 108.347 C 88.115 108.351,87.552 108.630,86.979 108.967 M327.031 110.561 C 326.487 110.864,326.080 111.149,326.126 111.195 C 326.242 111.311,327.858 110.471,328.019 110.211 C 328.199 109.920,328.154 109.936,327.031 110.561 M83.438 110.833 C 82.865 111.173,82.490 111.451,82.604 111.451 C 82.719 111.451,83.281 111.173,83.854 110.833 C 84.427 110.493,84.802 110.215,84.688 110.215 C 84.573 110.215,84.010 110.493,83.438 110.833 M79.896 112.600 C 79.208 112.997,78.740 113.322,78.854 113.324 C 78.969 113.326,79.625 113.004,80.313 112.608 C 81.000 112.212,81.469 111.886,81.354 111.884 C 81.240 111.882,80.583 112.204,79.896 112.600 M323.594 112.289 C 323.221 112.516,322.917 112.753,322.917 112.815 C 322.917 112.927,323.776 112.502,324.375 112.094 C 324.949 111.704,324.281 111.871,323.594 112.289 M319.896 114.267 C 319.208 114.663,318.740 114.989,318.854 114.991 C 318.969 114.993,319.625 114.671,320.313 114.275 C 321.000 113.878,321.469 113.553,321.354 113.551 C 321.240 113.549,320.583 113.871,319.896 114.267 M76.354 114.474 C 75.896 114.756,75.615 114.990,75.729 114.993 C 75.977 115.000,77.292 114.220,77.292 114.066 C 77.292 113.904,77.252 113.921,76.354 114.474 M316.354 116.042 C 315.781 116.382,315.406 116.660,315.521 116.660 C 315.635 116.660,316.198 116.382,316.771 116.042 C 317.344 115.702,317.719 115.424,317.604 115.424 C 317.490 115.424,316.927 115.702,316.354 116.042 M73.086 116.049 C 72.664 116.272,72.256 116.556,72.179 116.680 C 72.049 116.890,73.256 116.324,73.958 115.845 C 74.489 115.482,73.896 115.621,73.086 116.049 M69.754 117.819 C 69.218 118.098,68.708 118.441,68.622 118.581 C 68.473 118.821,70.297 117.857,70.719 117.472 C 71.027 117.191,70.809 117.269,69.754 117.819 M312.865 117.852 C 312.321 118.155,311.913 118.441,311.960 118.488 C 312.006 118.534,312.545 118.285,313.158 117.934 C 313.770 117.583,314.177 117.297,314.063 117.299 C 313.948 117.300,313.409 117.550,312.865 117.852 M309.529 119.561 C 308.161 120.364,308.009 120.580,309.271 119.929 C 310.520 119.285,311.011 118.962,310.729 118.972 C 310.615 118.976,310.075 119.241,309.529 119.561 M65.849 119.797 C 64.624 120.472,64.411 120.626,64.705 120.622 C 64.972 120.619,67.443 119.180,67.188 119.177 C 67.073 119.175,66.471 119.455,65.849 119.797 M94.945 120.038 C 94.285 120.396,93.787 120.731,93.839 120.783 C 93.938 120.883,96.250 119.618,96.250 119.464 C 96.250 119.331,96.238 119.336,94.945 120.038 M62.428 121.587 C 61.872 121.876,61.465 122.159,61.523 122.217 C 61.581 122.275,62.129 122.035,62.741 121.684 C 64.078 120.917,63.851 120.846,62.428 121.587 M91.266 121.881 C 90.041 122.555,89.827 122.710,90.122 122.706 C 90.389 122.702,92.860 121.263,92.604 121.260 C 92.490 121.259,91.887 121.538,91.266 121.881 M58.678 123.462 C 58.122 123.751,57.715 124.034,57.773 124.092 C 57.831 124.150,58.379 123.910,58.991 123.559 C 60.328 122.792,60.101 122.721,58.678 123.462 M87.844 123.670 C 87.289 123.959,86.882 124.243,86.939 124.300 C 86.997 124.358,87.545 124.118,88.158 123.767 C 89.495 123.000,89.267 122.929,87.844 123.670 M55.208 125.313 C 54.693 125.589,54.365 125.815,54.479 125.815 C 54.594 125.815,55.109 125.589,55.625 125.313 C 56.141 125.036,56.469 124.810,56.354 124.810 C 56.240 124.810,55.724 125.036,55.208 125.313 M84.094 125.545 C 83.539 125.834,83.132 126.118,83.189 126.175 C 83.247 126.233,83.795 125.993,84.408 125.642 C 85.745 124.875,85.517 124.804,84.094 125.545 M51.595 127.108 C 51.154 127.340,50.843 127.579,50.903 127.640 C 50.964 127.700,51.418 127.506,51.913 127.210 C 52.975 126.573,52.747 126.500,51.595 127.108 M80.781 127.305 C 80.122 127.645,79.583 127.970,79.583 128.027 C 79.583 128.120,82.063 126.940,82.274 126.746 C 82.547 126.496,81.822 126.768,80.781 127.305 M77.219 129.087 C 76.664 129.376,76.250 129.653,76.300 129.702 C 76.349 129.752,76.897 129.513,77.518 129.171 C 78.884 128.418,78.638 128.348,77.219 129.087 M49.177 130.438 C 49.530 131.137,49.866 131.662,49.923 131.605 C 50.028 131.499,48.784 129.167,48.623 129.167 C 48.575 129.167,48.824 129.739,49.177 130.438 M73.542 131.042 C 72.911 131.375,72.490 131.647,72.604 131.647 C 72.719 131.647,73.328 131.375,73.958 131.042 C 74.589 130.709,75.010 130.436,74.896 130.436 C 74.781 130.436,74.172 130.709,73.542 131.042 M70.365 132.619 C 69.557 133.057,69.648 133.209,70.469 132.791 C 71.254 132.392,71.393 132.288,71.128 132.300 C 71.023 132.305,70.680 132.448,70.365 132.619 M50.626 133.184 C 50.625 133.411,51.652 135.417,51.769 135.417 C 51.822 135.417,51.782 135.199,51.680 134.932 C 51.451 134.328,50.627 132.962,50.626 133.184 M66.458 134.688 C 65.943 134.964,65.615 135.190,65.729 135.190 C 65.844 135.190,66.359 134.964,66.875 134.688 C 67.391 134.411,67.719 134.185,67.604 134.185 C 67.490 134.185,66.974 134.411,66.458 134.688 M52.752 137.389 C 53.117 138.130,53.451 138.702,53.493 138.660 C 53.586 138.567,52.326 136.042,52.186 136.042 C 52.132 136.042,52.386 136.648,52.752 137.389 M63.021 136.472 C 62.677 136.693,62.490 136.873,62.604 136.873 C 62.719 136.872,63.094 136.686,63.438 136.458 C 63.781 136.231,63.969 136.051,63.854 136.058 C 63.740 136.066,63.365 136.252,63.021 136.472 M59.792 138.125 C 59.161 138.458,58.719 138.735,58.809 138.740 C 59.030 138.754,61.042 137.727,61.042 137.601 C 61.042 137.461,61.071 137.449,59.792 138.125 M56.354 139.900 C 55.667 140.296,55.198 140.620,55.313 140.620 C 55.563 140.621,57.708 139.409,57.708 139.267 C 57.708 139.119,57.708 139.119,56.354 139.900 " stroke="none" fill="#1c1c1c" fill-rule="evenodd"></path><path id="path3" d="" stroke="none" fill="#1002c2c" fill-rule="evenodd"></path><path id="path4" d="" stroke="none" fill="#5c2c2c" fill-rule="evenodd"></path></g></svg>