<svg xmlns="http://www.w3.org/2000/svg" id="currentIllo" data-name="Layer 1" width="342.6406" height="307.97887" viewBox="0 0 342.6406 307.97887" class="injected-svg DownloadHandModal__ImageFile-sc-1oysm0d-5 pjCtJ grid_media" xmlns:xlink="http://www.w3.org/1999/xlink"><path d="M560.87852,568.77194l5.00961-2.89063-1.7048-1.17031Q562.528,566.74329,560.87852,568.77194Z" transform="translate(-428.6797 -296.01056)" fill="#fd4e4e"/><path d="M625.28686,461.78833c4.4755-16.98171,5.84257-35.24187.50983-51.96994-5.33114-16.73068-18.16541-31.65281-35.06077-36.434-16.89695-4.77861-37.29735,2.58755-44.77625,18.47684-5.598,11.89424-4.69984,27.98921-15.591,35.35644-13.07747,8.84575-30.51627-2.92758-46.22242-1.30445-14.51473,1.4977-25.77977,15.29314-27.43719,29.79137-1.66,14.49663,4.73283,28.99018,14.11614,40.16636,9.3849,11.17357,21.5739,19.5755,33.60508,27.83087q29.877,20.50671,59.753,41.00921C589.61358,533.41064,615.02941,500.6784,625.28686,461.78833Z" transform="translate(-428.6797 -296.01056)" fill="#fd4e4e"/><path d="M597.45053,523.48919c-10.2828,17.4208-19.91526,35.23475-29.01054,53.30222,22.06324-31.39624,42.63105-54.86084,67.5705-86.15237a355.83288,355.83288,0,0,0,22.49239-31.92717c26.62521-5.24244,50.72252-18.84237,71.02211-36.68388-24.26707,9.62-46.7815,22.9289-69.94555,34.85263a187.952,187.952,0,0,0,15.92427-32.69142c5.08666-13.446,9.64128-27.66687,8.67421-42.21219-1.94-21.56133-7.788-39.16511-26.20413-52.91384-16.61945-10.4386-36.84188-5.91631-50.76735,6.8694-11.73781,9.40833-19.65218,22.15583-25.50088,35.80169-8.464-14.76394-23.88567-28.83564-46.95859-18.9515-21.47609,8.0584-37.63846,25.93481-48.1836,45.856-11.6489,21.766-12.38008,47.59168-5.83841,71.06216,6.97963,27.41664,23.394,50.84376,40.4816,72.90921,7.71155,10.38568,19.45891,24.37876,25.69341,32.39086,7.35735,9.62291,14.38916,19.49125,21.91112,28.9885-11.93108-23.02039-24.74471-45.51462-38.23442-67.65722-13.21413-22.4821-24.6749-41.39135-29.94454-62.392-5.047-17.33079-6.14631-34.821-3.84548-47.157,4.56858-26.98529,24.06277-50.58363,41.59784-56.73876,14.32964-5.84025,20.47889-1.79488,28.49173,12.37934,1.66371,3.56734.86713,1.46566,2.98645,7.71449,1.13094,3.96343,2.45588,8.20978,6.18452,10.46725,5.19762,3.25319,12.15448.6948,14.85947-4.57116a36.58379,36.58379,0,0,0,2.594-7.65313.66525.66525,0,0,0,.0485-.09957c1.79525-5.1414,3.56992-10.29125,5.62384-15.33676,1.13755-2.43126,4.063-8.5919,5.07636-9.77244q.89505-1.29022,1.79158-2.58118c.12933-.16424.266-.33729.41078-.51733,8.25167-10.08146,14.858-14.40313,20.92568-16.87665,9.06-3.075,11.60481-.6768,16.64957.51477,5.47466,3.10733,3.60813,1.645,8.79032,7.28129,12.8298,18.55432,14.23484,36.78088,6.88411,59.48344C649.05267,447.12985,620.66749,485.43922,597.45053,523.48919Z" transform="translate(-428.6797 -296.01056)"/><path d="M542.92588,413.10246c-15.86989.39315-15.828,23.64317.00074,24.07968C558.79725,436.789,558.75536,413.539,542.92588,413.10246Z" transform="translate(-428.6797 -296.01056)"/><path d="M607.25421,402.07489c-15.86989.39351-15.82874,23.64353.00073,24.07967C623.12484,425.76105,623.08368,402.51139,607.25421,402.07489Z" transform="translate(-428.6797 -296.01056)"/><path d="M584.40835,475.25085a89.7301,89.7301,0,0,1-13.93355,8.21455c-7.1707,2.755-14.81538,3.99761-22.30574,5.56725,15.96322,1.70854,28.031-.708,38.17416-14.04084C589.76617,470.65838,586.87158,473.62278,584.40835,475.25085Z" transform="translate(-428.6797 -296.01056)"/><path d="M767.27808,392.96454c-3.1393-3.46667-7.27579-5.63044-8.38468-6.85838a.77871.77871,0,0,0-.04924-.07863,13.05625,13.05625,0,0,0-16.33725-8.11352c-5.80241,2.231-9.82867,7.48338-13.12889,12.53807-6.20143,9.67434-6.21025,21.65466-6.54975,32.76417,3.6772-10.58556,4.91029-17.28191,10.71269-25.76469,4.02994-5.09621,8.91083-9.05634,11.46224-9.96388,1.89-.01176,1.41459-.13852,2.77775.60772l.01469.0125c.0926.09185.19768.20282.29174.30349.08745.14477.16755.28806.23.402,1.067,4.05565,4.34592,6.82017,7.83721,8.90164.38874.23552,1.16107.79658,1.66812,1.16952a20.141,20.141,0,0,1,2.4669,2.26739c.02572.03086.03527.04225.058.06871,1.793,2.60469.9994,5.062-.32039,8.94831-2.76305,6.32562-8.37072,9.99621-13.17,13.17-5.20423,3.33036-11.025,5.45812-16.65325,7.93936.76866-.09039,1.53952-.17931,2.30891-.27153,11.183-1.01888,22.70844-3.86276,31.27242-11.52655C770.8649,412.954,774.74125,400.62686,767.27808,392.96454Z" transform="translate(-428.6797 -296.01056)"/><path d="M721.96628,325.54028c-15.86989.39315-15.82874,23.64317.00074,24.07967C737.83691,349.22644,737.79576,325.97678,721.96628,325.54028Z" transform="translate(-428.6797 -296.01056)"/><path d="M558.68481,296.01056c-15.86989.39352-15.828,23.64354.00074,24.07968C574.55544,319.69672,574.51429,296.4467,558.68481,296.01056Z" transform="translate(-428.6797 -296.01056)"/><path d="M440.56669,547.88044c-15.86989.39352-15.82874,23.64317,0,24.07968C456.43732,571.567,456.39617,548.317,440.56669,547.88044Z" transform="translate(-428.6797 -296.01056)"/><path d="M567.48909,443.28362c-5.019,2.71382-8.13924,8.64041-6.17056,14.33773a9.02917,9.02917,0,0,0,6.1588,5.49854c2.44192.81458-1.25954-.88256-1.8048-1.63946-3.46116-3.22049-3.07462-9.161.24691-12.33819,1.47632-1.68208,3.362-1.94809,4.81329-4.10232,1.41239-6.52917,1.22721-13.48456,1.57847-20.1776C570.29476,430.86938,569.38869,437.33021,567.48909,443.28362Z" transform="translate(-428.6797 -296.01056)"/></svg>